<?xml version="1.0" standalone="no"?>
<!DOCTYPE svg PUBLIC "-//W3C//DTD SVG 20010904//EN"
 "http://www.w3.org/TR/2001/REC-SVG-20010904/DTD/svg10.dtd">
<svg version="1.0" xmlns="http://www.w3.org/2000/svg"
 width="392.000000pt" height="424.000000pt" viewBox="0 0 392.000000 424.000000"
 preserveAspectRatio="xMidYMid meet">

<g transform="translate(0.000000,424.000000) scale(0.100000,-0.100000)"
fill="#000000" stroke="none">
<path d="M2187 4211 c-40 -36 -94 -143 -107 -213 -15 -79 -12 -175 15 -408 14
-118 25 -242 25 -276 l0 -60 -152 4 c-84 2 -151 2 -148 -2 4 -3 77 -7 164 -9
l158 -4 -6 71 c-4 39 -18 175 -33 301 -29 260 -27 358 7 447 32 86 79 149 120
164 27 9 30 13 13 13 -12 1 -37 -12 -56 -28z"/>
<path d="M2316 4211 c80 -37 163 -165 190 -297 14 -64 16 -114 11 -264 -5
-159 -24 -386 -41 -510 -5 -34 -3 -38 63 -88 183 -139 324 -341 402 -572 29
-87 51 -180 42 -180 -2 0 -21 10 -43 22 -31 18 -39 30 -44 60 -3 20 -11 40
-17 44 -7 4 -9 0 -6 -12 3 -11 8 -30 12 -42 6 -21 5 -22 -12 -14 -11 6 -24 32
-32 61 -29 113 -113 255 -212 358 -134 139 -264 209 -449 243 -170 32 -317 11
-475 -65 -97 -46 -120 -63 -182 -128 -102 -107 -148 -212 -189 -425 -5 -23
-23 -34 -81 -46 l-31 -7 9 38 c11 48 11 55 0 49 -5 -3 -12 -26 -15 -50 l-7
-44 -82 -31 c-45 -17 -110 -46 -144 -65 l-62 -33 -13 31 c-36 86 7 321 92 491
49 100 141 224 181 245 16 9 24 8 38 -4 32 -29 76 -20 130 28 27 24 86 72 130
107 45 34 81 65 81 68 0 3 -11 40 -24 81 -13 41 -36 116 -51 165 -43 148 -75
234 -127 344 -44 91 -61 115 -136 191 -65 64 -106 96 -161 123 -84 42 -130 47
-179 17 -52 -32 -66 -77 -66 -205 1 -184 32 -268 239 -630 57 -99 111 -197
121 -217 l17 -37 -65 -70 c-37 -38 -83 -98 -103 -133 -74 -126 -141 -328 -147
-445 -2 -29 -5 -53 -8 -53 -3 0 -35 46 -72 103 -180 273 -316 397 -454 413
-41 5 -54 2 -77 -16 -34 -27 -35 -66 -7 -165 11 -39 38 -160 60 -270 22 -110
50 -229 62 -265 49 -148 126 -288 231 -417 l66 -83 -15 -42 c-25 -69 -74 -275
-90 -378 -8 -52 -17 -179 -21 -281 l-6 -187 49 -35 c51 -38 161 -87 193 -87
11 0 28 -14 40 -33 43 -70 191 -192 296 -244 22 -11 75 -32 118 -48 74 -27 77
-29 77 -59 0 -37 44 -85 98 -106 49 -19 158 -7 228 26 51 24 154 111 154 129
0 9 -109 1 -225 -15 -103 -15 -184 -7 -304 32 -114 36 -175 66 -256 124 -145
104 -217 210 -264 387 -10 38 -9 39 26 54 58 24 182 54 252 60 l64 6 -19 -26
c-10 -15 -22 -27 -26 -27 -5 0 -8 -5 -8 -12 0 -6 -7 -20 -17 -30 -9 -10 -13
-21 -9 -26 9 -8 28 16 66 78 14 23 51 61 83 85 59 45 197 105 241 105 14 0 30
10 40 25 31 47 95 85 142 85 98 0 173 -138 174 -321 0 -31 5 -70 11 -87 10
-30 0 -165 -16 -217 -3 -11 2 -6 12 10 15 25 18 53 18 176 l0 146 66 -13 c97
-18 278 -69 334 -93 11 -5 54 -21 95 -36 187 -69 539 -262 524 -287 -4 -6 -3
-8 3 -5 15 9 73 -31 73 -50 0 -10 -13 -30 -29 -45 -24 -23 -29 -37 -33 -90 -5
-76 -40 -158 -94 -218 -22 -24 -32 -41 -24 -38 26 8 89 100 117 171 24 60 29
67 54 67 38 0 132 20 143 31 5 5 4 14 -3 22 -8 10 -9 22 -1 41 8 22 7 26 -8
26 -10 0 -24 6 -31 13 -11 10 -11 8 0 -10 7 -12 17 -19 21 -17 4 3 8 -3 8 -13
0 -14 -7 -11 -32 14 l-32 32 24 26 24 25 19 -30 c10 -16 20 -30 22 -30 7 0 -1
59 -9 67 -5 5 -6 2 -1 -7 6 -11 4 -11 -10 2 -17 15 -16 18 13 55 30 39 70 113
92 171 41 108 -10 -110 -55 -238 -36 -102 -42 -138 -10 -67 31 70 98 310 121
433 10 55 18 168 21 296 l5 206 82 -35 c103 -45 458 -174 463 -169 2 2 -54 26
-124 54 -70 28 -120 51 -111 52 9 0 20 4 23 10 4 7 -3 6 -20 0 -28 -10 -84 -1
-115 20 -21 14 5 13 32 -1 16 -9 19 -8 16 3 -3 8 -22 13 -54 14 -27 0 -62 8
-79 17 -22 13 -24 16 -7 12 14 -4 22 -2 22 5 0 8 -11 10 -33 6 -23 -4 -39 -1
-52 10 -18 14 -12 15 75 9 105 -7 126 -16 280 -114 47 -30 109 -64 139 -76 32
-13 48 -25 40 -28 -8 -3 0 -6 17 -6 38 -1 64 25 64 66 0 48 -93 223 -178 336
-42 56 -141 168 -220 249 l-144 147 39 6 c61 10 141 34 148 44 3 5 -25 26 -62
47 -51 28 -143 105 -143 119 0 1 33 5 73 9 l72 6 85 87 c78 80 203 233 196
241 -2 1 -34 -3 -72 -9 -57 -10 -89 -9 -184 4 -63 10 -156 20 -205 23 l-91 7
-40 -46 c-23 -25 -52 -67 -65 -92 -37 -69 -42 -64 -88 105 -38 137 -120 306
-196 405 -50 66 -177 194 -256 260 l-36 30 23 200 c31 263 36 503 11 604 -31
127 -102 246 -173 287 -22 13 -47 24 -55 24 -8 0 4 -9 27 -19z m-1346 -120 c0
-5 -15 -20 -34 -35 -25 -19 -38 -38 -44 -69 -6 -25 -10 -33 -11 -19 -2 36 28
91 58 107 26 14 26 14 3 15 -28 0 -78 -25 -85 -42 -4 -9 -6 -9 -6 -1 -2 21 50
53 85 53 19 0 34 -4 34 -9z m113 -83 c27 -17 71 -57 97 -89 54 -64 134 -215
125 -236 -2 -8 -1 -12 4 -8 12 7 35 -61 25 -76 -5 -8 -3 -9 6 -4 9 6 10 2 5
-15 -5 -14 -3 -20 3 -16 12 7 31 -47 30 -89 0 -16 5 -31 11 -33 6 -2 11 -10
11 -18 0 -8 4 -22 9 -32 13 -23 51 -149 51 -166 0 -8 -31 -39 -70 -70 -38 -31
-70 -52 -70 -46 0 6 -22 50 -50 99 -52 92 -58 107 -38 95 7 -4 8 -3 4 5 -4 6
-11 9 -15 6 -5 -2 -31 33 -59 78 -36 59 -49 90 -45 105 3 13 1 22 -6 22 -6 0
-8 -8 -4 -17 12 -36 -15 3 -66 92 -29 50 -50 98 -47 108 2 9 1 15 -4 12 -8 -5
-32 53 -48 115 -5 19 -10 66 -11 103 -2 54 1 73 15 88 26 29 79 24 137 -13z
m387 -823 c-7 -8 -17 -15 -23 -15 -6 0 -2 7 9 15 25 19 30 19 14 0z m70 1 c0
-7 -12 -22 -27 -31 l-28 -18 23 25 c12 13 19 28 15 31 -3 4 -1 7 5 7 7 0 12
-6 12 -14z m-80 -69 c-58 -52 -141 -117 -125 -98 20 24 126 111 135 111 2 0
-2 -6 -10 -13z m-1050 -322 c16 -8 32 -24 35 -36 4 -11 21 -37 38 -57 l32 -36
-32 22 c-18 13 -35 27 -38 33 -10 15 -122 69 -145 69 -12 0 -18 5 -15 10 9 15
92 12 125 -5z m2065 -24 c99 -52 175 -150 175 -224 0 -137 -273 -49 -356 114
-28 57 -30 76 -8 107 34 49 101 50 189 3z m-722 22 c-7 -2 -19 -2 -25 0 -7 3
-2 5 12 5 14 0 19 -2 13 -5z m-83 -7 c0 -2 -7 -7 -16 -10 -8 -3 -12 -2 -9 4 6
10 25 14 25 6z m137 -26 c66 -40 88 -111 55 -177 -24 -46 -85 -103 -110 -103
-26 0 -95 -21 -89 -27 3 -2 54 5 114 17 61 13 160 24 229 26 l121 4 11 -33 12
-32 -5 33 c-4 31 -3 32 32 32 117 0 383 -45 509 -86 181 -58 241 -97 327 -215
37 -50 32 -75 -20 -113 -37 -27 -143 -154 -143 -171 0 -11 60 36 127 98 34 33
63 55 63 50 0 -16 -217 -197 -298 -247 -23 -15 -48 -24 -54 -20 -6 4 -8 3 -5
-3 10 -16 -40 -45 -66 -38 -15 4 -18 3 -9 -3 15 -10 -90 -71 -235 -136 -93
-41 -89 -42 -178 24 -27 21 -99 66 -160 101 -60 35 -114 69 -118 76 -4 7 -14
13 -21 13 -20 0 -331 141 -335 152 -2 7 -6 6 -10 -1 -5 -8 -39 0 -109 23 -55
19 -158 49 -229 67 -70 18 -129 36 -131 39 -1 4 -26 6 -55 4 -29 -1 -41 0 -27
3 13 3 43 18 66 34 24 17 56 29 73 29 49 0 36 14 -36 39 -64 22 -70 23 -105 8
-72 -30 -37 -6 46 33 74 33 146 58 441 150 33 10 78 21 100 25 59 11 76 24 24
18 -38 -4 -50 -1 -73 18 -59 52 -48 154 26 230 24 24 42 48 40 52 -1 5 1 6 6
3 5 -3 26 1 48 9 56 20 114 18 151 -5z m1518 -334 c44 -3 118 -12 164 -20 81
-14 140 -11 195 10 15 6 12 -3 -14 -37 -19 -24 -48 -59 -65 -77 -41 -46 -191
-135 -224 -134 -14 1 -64 2 -111 3 -88 2 -87 17 1 18 25 1 54 8 65 16 22 17 3
21 -27 5 -28 -16 -23 0 13 37 34 35 65 41 113 23 18 -7 33 -7 48 2 36 18 86
61 82 69 -3 4 -46 7 -98 8 l-92 2 -35 -36 c-88 -91 -199 -156 -227 -133 -8 7
-13 36 -13 80 0 48 -3 67 -11 62 -6 -3 -3 6 7 22 29 47 46 64 58 57 6 -3 8 -3
4 2 -16 17 14 34 50 30 21 -2 73 -6 117 -9z m-255 -141 c-7 -8 -9 -23 -6 -32
6 -14 5 -15 -5 -6 -10 10 -10 18 0 39 6 15 14 24 18 21 3 -4 0 -13 -7 -22z
m-2111 -119 c1 -6 -5 -1 -13 9 -8 11 -12 24 -8 29 5 9 20 -17 21 -38z m2561
41 c0 -2 -19 -21 -42 -42 l-43 -40 40 43 c36 39 45 47 45 39z m-2244 -176 c-5
-7 -40 -206 -61 -346 -23 -150 -37 -307 -42 -477 -5 -168 -8 -198 -21 -198 -9
0 -24 7 -34 17 -22 20 -25 73 -3 73 21 0 21 122 0 140 -18 15 -14 63 7 87 18
21 30 100 17 109 -16 10 -6 76 13 88 13 8 18 24 18 58 0 26 -4 50 -10 53 -15
9 -12 56 4 74 21 25 28 77 11 91 -16 13 -10 36 18 67 15 17 18 28 12 50 -11
38 -7 55 16 75 10 9 19 23 19 32 0 9 8 16 21 16 11 0 18 -4 15 -9z m2159 -82
c28 -17 41 -28 30 -24 -11 4 -31 8 -45 10 -54 5 -53 4 -41 19 9 11 9 15 -1 19
-7 3 -8 6 -3 6 6 0 33 -13 60 -30z m-88 -143 c44 -39 87 -108 80 -129 -2 -6
-18 16 -36 49 -27 51 -41 66 -92 94 -32 19 -59 37 -59 41 0 15 65 -18 107 -55z
m-1932 24 c-3 -5 -12 -10 -18 -10 -7 0 -6 4 3 10 19 12 23 12 15 0z m165 -10
c0 -5 -4 -10 -10 -10 -5 0 -10 5 -10 10 0 6 5 10 10 10 6 0 10 -4 10 -10z
m1293 -1116 c18 -9 58 -34 89 -56 54 -36 57 -40 46 -63 l-11 -24 -44 36 c-44
37 -53 36 -66 -1 -2 -5 -22 3 -44 18 -26 18 -40 33 -36 42 3 8 9 14 14 14 4 0
6 -6 3 -14 -3 -7 2 -16 12 -20 14 -5 15 -4 4 9 -16 20 -1 19 28 -1 13 -9 26
-14 29 -11 2 3 -8 12 -24 21 -48 26 -54 32 -47 49 8 21 8 21 47 1z m-1113
-462 c0 -15 -64 -70 -105 -90 -126 -62 -270 -49 -310 28 -28 54 -23 60 53 54
37 -3 86 -10 110 -16 23 -6 45 -8 49 -4 3 3 -5 7 -18 7 -29 2 130 26 184 28
20 0 37 -3 37 -7z"/>
<path d="M979 3970 c-26 -26 -30 -35 -27 -79 2 -27 6 -47 10 -45 4 3 15 -7 25
-22 36 -56 136 -72 178 -29 43 42 25 108 -45 168 -56 48 -99 50 -141 7z m144
-26 c90 -91 41 -193 -71 -148 -70 27 -103 109 -66 162 12 17 25 22 58 22 36 0
49 -6 79 -36z"/>
<path d="M1095 3927 c1 -13 5 -28 9 -35 4 -7 2 -12 -7 -12 -21 0 -27 11 -18
29 7 12 4 16 -12 17 -12 0 -28 2 -36 5 -7 2 -16 -2 -18 -8 -3 -9 5 -13 22 -13
14 0 24 -4 21 -9 -3 -5 1 -14 9 -21 11 -9 12 -17 5 -30 -12 -23 -13 -30 -2
-30 5 0 14 11 20 25 11 24 42 35 42 15 0 -5 5 -10 10 -10 18 0 10 29 -11 40
-12 7 -19 19 -17 32 2 12 -2 23 -7 25 -6 2 -10 -7 -10 -20z"/>
<path d="M1022 3655 c6 -14 13 -23 16 -21 7 7 -9 46 -18 46 -5 0 -4 -11 2 -25z"/>
<path d="M1060 3589 c0 -5 5 -7 10 -4 6 3 10 8 10 11 0 2 -4 4 -10 4 -5 0 -10
-5 -10 -11z"/>
<path d="M338 2793 c7 -3 16 -2 19 1 4 3 -2 6 -13 5 -11 0 -14 -3 -6 -6z"/>
<path d="M400 2775 c0 -8 9 -19 20 -25 24 -13 27 2 4 24 -19 20 -24 20 -24 1z"/>
<path d="M2351 2736 c-35 -43 32 -140 127 -184 123 -56 159 28 57 132 -21 21
-53 45 -71 52 -43 18 -98 18 -113 0z"/>
<path d="M1651 2702 c-45 -22 -71 -59 -78 -110 -5 -35 -2 -44 22 -67 23 -24
32 -27 72 -22 103 11 175 123 123 190 -17 22 -30 27 -63 27 -23 0 -57 -8 -76
-18z m14 -12 c-3 -5 -11 -10 -16 -10 -6 0 -7 5 -4 10 3 6 11 10 16 10 6 0 7
-4 4 -10z m-73 -82 c-8 -8 -9 -4 -5 13 4 13 8 18 11 10 2 -7 -1 -18 -6 -23z"/>
<path d="M2151 2418 c-1 -17 -12 -22 -39 -19 -8 1 -21 -4 -30 -11 -9 -8 -13
-8 -9 -1 5 7 0 9 -14 6 -16 -4 -17 -8 -7 -14 9 -6 7 -9 -8 -9 -12 0 -25 7 -28
16 -4 9 -9 14 -13 11 -13 -13 21 -37 52 -37 30 0 32 -3 48 -60 10 -33 17 -69
17 -80 0 -11 6 -20 13 -20 8 0 7 -4 -3 -10 -13 -8 -12 -10 3 -10 9 0 17 6 17
13 1 6 10 1 20 -12 15 -17 20 -19 20 -8 0 16 35 16 49 1 3 -4 -2 -4 -11 -1
-12 4 -18 1 -18 -8 0 -10 10 -14 30 -12 36 2 37 10 5 42 -16 17 -35 25 -59 25
-31 0 -38 4 -50 35 -9 20 -18 51 -22 70 -5 29 -2 38 21 58 16 13 25 29 22 38
-4 10 -6 10 -6 -3z"/>
<path d="M2288 2382 c-8 -9 -13 -24 -11 -33 4 -16 69 -54 90 -52 7 0 10 -3 7
-8 -3 -5 4 -21 15 -35 11 -14 23 -38 26 -54 8 -35 25 -50 25 -21 0 10 -6 21
-12 23 -9 3 -8 9 4 22 10 9 19 16 20 15 2 -1 20 3 41 10 32 11 38 17 33 35 -4
19 -4 19 8 4 13 -17 48 -15 73 4 6 5 33 11 59 14 50 5 73 14 36 14 -12 0 -22
4 -22 9 0 5 -12 11 -27 14 -16 2 -55 12 -88 21 -33 10 -91 19 -130 21 -38 3
-84 7 -102 9 -21 3 -36 -1 -45 -12z m27 -21 c-9 -16 -25 -3 -18 15 4 10 9 12
15 6 6 -6 7 -15 3 -21z m240 -42 c-3 -4 -12 -6 -20 -3 -8 4 -13 10 -10 15 3 4
12 6 20 3 8 -4 13 -10 10 -15z m75 11 c0 -5 -7 -10 -15 -10 -8 0 -15 5 -15 10
0 6 7 10 15 10 8 0 15 -4 15 -10z m-200 -40 c0 -5 -4 -10 -10 -10 -5 0 -10 5
-10 10 0 6 5 10 10 10 6 0 10 -4 10 -10z"/>
<path d="M1465 2379 c-4 -6 -13 -8 -21 -5 -8 3 -13 1 -11 -4 1 -5 -7 -16 -18
-25 -16 -13 -13 -12 13 2 32 17 61 43 49 43 -3 0 -9 -5 -12 -11z"/>
<path d="M1811 2344 c0 -11 3 -14 6 -6 3 7 2 16 -1 19 -3 4 -6 -2 -5 -13z"/>
<path d="M1875 2290 c21 -21 42 -37 46 -34 4 2 12 -4 18 -13 6 -10 10 -13 11
-8 0 17 -14 32 -48 49 -18 9 -36 24 -39 32 -3 7 -10 14 -16 14 -6 0 6 -18 28
-40z"/>
<path d="M1701 2313 c0 -5 4 -17 9 -28 8 -18 9 -17 9 8 1 15 -3 27 -9 27 -5 0
-10 -3 -9 -7z"/>
<path d="M1361 2290 c0 -8 4 -24 9 -35 5 -13 9 -14 9 -5 0 8 -4 24 -9 35 -5
13 -9 14 -9 5z"/>
<path d="M1486 2241 c-4 -6 -2 -11 3 -11 6 0 11 -8 12 -17 0 -10 3 -13 5 -6 8
18 -11 49 -20 34z"/>
<path d="M1410 2220 c-13 -8 -13 -10 2 -10 9 0 20 5 23 10 8 13 -5 13 -25 0z"/>
<path d="M1737 2179 c4 -13 8 -18 11 -10 2 7 -1 18 -6 23 -8 8 -9 4 -5 -13z"/>
<path d="M2074 2178 l-19 -23 25 20 c14 11 27 21 29 22 2 2 0 3 -6 3 -5 0 -18
-10 -29 -22z"/>
<path d="M2450 2105 c0 -9 6 -12 15 -9 8 4 15 7 15 9 0 2 -7 5 -15 9 -9 3 -15
0 -15 -9z"/>
<path d="M1521 2105 c0 -5 7 -32 15 -60 l14 -50 -5 44 c-5 39 -25 92 -24 66z"/>
<path d="M2281 2094 c0 -11 3 -14 6 -6 3 7 2 16 -1 19 -3 4 -6 -2 -5 -13z"/>
<path d="M2061 2070 c1 -8 5 -26 9 -40 l8 -25 1 25 c0 14 -4 32 -9 40 -9 13
-10 13 -9 0z"/>
<path d="M2291 2054 c0 -11 3 -14 6 -6 3 7 2 16 -1 19 -3 4 -6 -2 -5 -13z"/>
<path d="M1786 1973 c9 -38 14 -42 14 -10 0 14 -5 29 -10 32 -7 4 -8 -3 -4
-22z"/>
<path d="M2080 1993 c0 -18 51 -54 64 -45 7 4 2 8 -11 10 -13 2 -30 13 -38 25
-8 12 -15 16 -15 10z"/>
<path d="M2265 1979 c-16 -10 -25 -19 -19 -19 7 0 22 9 35 20 30 24 23 24 -16
-1z"/>
<path d="M2439 1903 c-13 -16 -12 -17 4 -4 9 7 17 15 17 17 0 8 -8 3 -21 -13z"/>
<path d="M2825 1899 c-11 -17 1 -21 15 -4 8 9 8 15 2 15 -6 0 -14 -5 -17 -11z"/>
<path d="M1881 1890 c0 -8 4 -24 9 -35 5 -13 9 -14 9 -5 0 8 -4 24 -9 35 -5
13 -9 14 -9 5z"/>
<path d="M1960 1856 c32 -35 96 -73 107 -63 2 3 -9 9 -26 15 -16 6 -49 27 -73
48 l-43 38 35 -38z"/>
<path d="M2365 1859 c-40 -15 -43 -18 -15 -13 19 4 46 12 60 20 34 18 15 15
-45 -7z"/>
<path d="M2200 1824 c-19 -7 -44 -13 -54 -13 -11 -1 -17 -4 -13 -7 8 -9 107
16 107 27 0 5 -1 8 -2 8 -2 -1 -19 -7 -38 -15z"/>
<path d="M2268 1833 c7 -3 16 -2 19 1 4 3 -2 6 -13 5 -11 0 -14 -3 -6 -6z"/>
<path d="M2098 1793 c7 -3 16 -2 19 1 4 3 -2 6 -13 5 -11 0 -14 -3 -6 -6z"/>
<path d="M2520 1710 c0 -5 7 -7 15 -4 8 4 15 8 15 10 0 2 -7 4 -15 4 -8 0 -15
-4 -15 -10z"/>
<path d="M2175 1670 c3 -5 10 -10 16 -10 5 0 9 5 9 10 0 6 -7 10 -16 10 -8 0
-12 -4 -9 -10z"/>
<path d="M2445 1670 c-3 -6 1 -7 9 -4 18 7 21 14 7 14 -6 0 -13 -4 -16 -10z"/>
<path d="M3636 2374 c-5 -14 -4 -15 9 -4 17 14 19 20 6 20 -5 0 -12 -7 -15
-16z"/>
<path d="M2840 695 c0 -2 34 -27 75 -54 51 -34 77 -46 81 -38 4 7 4 9 0 6 -4
-4 -18 4 -30 16 -23 23 -126 80 -126 70z"/>
<path d="M2272 4163 c-7 -3 -25 -28 -40 -56 -26 -49 -27 -59 -27 -187 0 -74 4
-157 8 -185 4 -27 10 -156 13 -285 3 -129 9 -238 13 -242 10 -11 193 -89 198
-84 2 2 14 66 26 142 17 111 21 185 22 369 0 226 -1 232 -28 320 -54 168 -114
237 -185 208z m96 -48 c39 -42 43 -65 6 -36 -32 25 -71 27 -96 4 -49 -44 15
-171 100 -198 28 -8 62 18 63 49 0 12 7 -4 14 -34 18 -77 28 -244 19 -339 -6
-75 -8 -79 -23 -63 -9 10 -13 13 -8 6 4 -6 5 -18 1 -27 -3 -8 -1 -18 5 -22 6
-3 11 -13 11 -21 0 -8 -4 -12 -10 -9 -5 3 -10 -1 -10 -9 0 -9 5 -16 10 -16 6
0 10 -9 10 -21 0 -13 -5 -19 -12 -16 -10 3 -13 -13 -15 -62 -2 -100 -7 -161
-14 -161 -3 0 -9 4 -15 9 -5 5 -26 14 -46 21 -21 6 -38 16 -38 21 0 5 -7 9
-15 9 -8 0 -25 5 -38 11 l-25 11 2 157 c1 154 -3 221 -24 436 -16 158 -3 248
46 323 21 32 58 23 102 -23z m7 -56 c22 -21 6 -26 -25 -7 -25 16 -37 4 -16
-17 18 -19 21 -46 5 -62 -7 -7 -7 -13 0 -17 5 -4 15 3 21 14 13 24 30 18 30
-11 0 -10 5 -19 10 -19 6 0 10 8 10 18 -1 21 -29 73 -30 53 0 -8 -3 -12 -6 -8
-10 10 6 26 21 21 19 -8 38 -69 31 -100 -12 -48 -98 -18 -131 47 -20 38 -22
98 -4 110 19 12 60 2 84 -22z"/>
<path d="M2250 3826 c0 -8 4 -17 9 -20 5 -4 7 3 4 14 -6 23 -13 26 -13 6z"/>
<path d="M2331 3813 c7 -12 15 -20 18 -17 3 2 -3 12 -13 22 -17 16 -18 16 -5
-5z"/>
<path d="M2428 3821 c7 -4 17 -21 22 -37 8 -28 8 -28 9 -3 1 26 -15 49 -33 49
-6 0 -5 -4 2 -9z"/>
<path d="M2411 3794 c0 -11 3 -14 6 -6 3 7 2 16 -1 19 -3 4 -6 -2 -5 -13z"/>
<path d="M2280 3767 c0 -20 4 -38 9 -42 6 -3 7 10 4 32 -8 50 -13 55 -13 10z"/>
<path d="M2322 3760 c0 -19 2 -27 5 -17 2 9 2 25 0 35 -3 9 -5 1 -5 -18z"/>
<path d="M2402 3748 c7 -15 15 -23 17 -17 2 6 -4 18 -13 27 -15 15 -15 15 -4
-10z"/>
<path d="M2452 3705 c0 -16 2 -22 5 -12 2 9 2 23 0 30 -3 6 -5 -1 -5 -18z"/>
<path d="M2357 3663 c-10 -9 -9 -23 1 -23 5 0 9 7 9 15 0 17 -1 18 -10 8z"/>
<path d="M2390 3645 c0 -14 4 -25 9 -25 4 0 6 11 3 25 -2 14 -6 25 -8 25 -2 0
-4 -11 -4 -25z"/>
<path d="M2330 3633 c0 -6 8 -17 18 -24 16 -13 16 -13 2 6 -8 11 -16 22 -17
24 -2 2 -3 0 -3 -6z"/>
<path d="M2352 3565 c0 -16 2 -22 5 -12 2 9 2 23 0 30 -3 6 -5 -1 -5 -18z"/>
<path d="M2391 3574 c0 -11 3 -14 6 -6 3 7 2 16 -1 19 -3 4 -6 -2 -5 -13z"/>
<path d="M2273 3546 c-10 -11 -9 -15 2 -20 10 -4 15 1 15 14 0 23 -1 24 -17 6z"/>
<path d="M2312 3536 c-1 -13 7 -31 18 -41 11 -10 20 -13 20 -8 0 6 -6 16 -14
23 -8 6 -13 17 -10 25 3 7 2 15 -3 18 -5 3 -10 -5 -11 -17z"/>
<path d="M2269 3462 c5 -34 6 -35 9 -8 2 16 0 32 -5 37 -5 5 -7 -7 -4 -29z"/>
<path d="M2405 3491 c-3 -5 -1 -12 5 -16 5 -3 10 1 10 9 0 18 -6 21 -15 7z"/>
<path d="M2307 3448 c-4 -20 -13 -39 -20 -41 -9 -4 -9 -6 0 -6 17 -1 35 35 31
62 -3 16 -6 13 -11 -15z"/>
<path d="M2399 3403 c4 -51 6 -52 14 -1 3 23 1 38 -6 41 -8 3 -11 -9 -8 -40z"/>
<path d="M1652 3228 c-46 -11 -81 -22 -79 -25 3 -2 33 3 67 12 33 9 87 20 118
24 49 7 51 9 17 9 -22 0 -77 -9 -123 -20z"/>
<path d="M1886 3222 c5 -4 23 -18 39 -32 l30 -25 -29 33 c-17 17 -34 32 -40
32 -6 0 -6 -3 0 -8z"/>
<path d="M1925 3089 c-13 -6 -4 -7 30 -3 28 4 52 8 54 10 9 8 -65 2 -84 -7z"/>
<path d="M2070 3090 c14 -4 41 -8 60 -8 l35 0 -40 9 c-22 4 -49 8 -60 7 -16 0
-15 -2 5 -8z"/>
<path d="M1805 3070 c-25 -11 1 -11 35 0 20 6 21 8 5 8 -11 0 -29 -3 -40 -8z"/>
<path d="M2205 3070 c4 -6 9 -9 12 -6 3 2 23 -2 45 -10 43 -15 68 -11 27 4
-48 19 -92 25 -84 12z"/>
<path d="M1670 3020 c-19 -11 -30 -19 -25 -19 6 0 26 8 45 19 19 11 31 19 25
19 -5 0 -26 -8 -45 -19z"/>
<path d="M2350 3031 c0 -4 19 -16 43 -26 23 -10 47 -21 52 -23 6 -2 3 2 -5 11
-18 19 -90 49 -90 38z"/>
<path d="M2514 2935 c22 -19 41 -33 44 -30 6 5 -34 41 -63 56 -11 5 -2 -6 19
-26z"/>
<path d="M1519 2923 c-13 -16 -12 -17 4 -4 9 7 17 15 17 17 0 8 -8 3 -21 -13z"/>
<path d="M1421 2835 c-38 -41 -47 -55 -37 -55 2 0 23 23 46 50 52 62 47 65 -9
5z"/>
<path d="M2590 2874 c0 -13 68 -79 75 -73 2 3 -13 23 -35 44 -22 22 -40 35
-40 29z"/>
<path d="M2690 2764 c0 -5 14 -25 31 -44 l31 -35 -19 33 c-19 35 -43 61 -43
46z"/>
<path d="M1320 2690 c-17 -34 -30 -64 -27 -66 2 -2 18 24 35 58 18 33 30 63
28 66 -3 2 -19 -24 -36 -58z"/>
<path d="M2770 2653 c0 -12 39 -83 46 -83 9 0 3 17 -21 55 -13 22 -25 35 -25
28z"/>
<path d="M1255 2541 c-9 -28 -15 -57 -12 -64 2 -6 12 14 21 47 21 72 14 86 -9
17z"/>
<path d="M2830 2535 c0 -14 31 -77 35 -73 6 5 -22 78 -30 78 -3 0 -5 -2 -5 -5z"/>
<path d="M3562 1179 c2 -6 14 -16 26 -20 29 -11 28 -5 -4 16 -17 11 -25 12
-22 4z"/>
<path d="M1002 884 c-25 -17 -28 -33 -9 -58 13 -17 15 -16 34 15 18 32 20 59
4 59 -3 0 -17 -7 -29 -16z"/>
<path d="M1340 863 c-6 -21 -14 -63 -17 -95 -6 -64 4 -139 17 -118 5 9 10 3
14 -18 4 -16 15 -37 25 -46 16 -14 15 -9 -5 32 -28 58 -39 158 -25 227 11 61
7 71 -9 18z"/>
<path d="M818 843 c7 -3 16 -2 19 1 4 3 -2 6 -13 5 -11 0 -14 -3 -6 -6z"/>
<path d="M1706 642 c-19 -36 -79 -90 -109 -97 -12 -3 -49 -6 -82 -8 l-60 -2
47 -9 c68 -12 113 0 159 41 40 36 75 90 65 100 -2 3 -11 -8 -20 -25z"/>
<path d="M1000 627 c0 -15 4 -27 9 -27 6 0 8 10 6 21 -6 33 -15 36 -15 6z"/>
<path d="M1010 576 c0 -27 29 -76 45 -76 8 0 15 5 15 10 0 6 -6 10 -14 10 -11
0 -23 21 -30 52 -3 16 -16 20 -16 4z"/>
<path d="M3072 550 c-14 -23 -15 -30 -3 -30 8 0 24 41 18 47 -2 1 -8 -7 -15
-17z"/>
<path d="M1825 530 c10 -11 20 -20 23 -20 3 0 -3 9 -13 20 -10 11 -20 20 -23
20 -3 0 3 -9 13 -20z"/>
<path d="M3037 485 c-16 -23 -17 -27 -3 -47 17 -24 16 -26 21 32 0 8 4 21 8
28 15 23 -8 12 -26 -13z"/>
<path d="M1891 241 c79 -17 220 -57 297 -84 17 -6 32 -17 32 -24 0 -23 -60
-81 -106 -103 -26 -11 -43 -24 -40 -27 14 -14 122 49 150 88 18 23 38 39 50
39 36 0 4 17 -84 44 -138 42 -271 75 -330 80 -45 5 -39 2 31 -13z"/>
</g>
</svg>
