<?xml version="1.0" standalone="no"?>
<!DOCTYPE svg PUBLIC "-//W3C//DTD SVG 20010904//EN"
 "http://www.w3.org/TR/2001/REC-SVG-20010904/DTD/svg10.dtd">
<svg version="1.0" xmlns="http://www.w3.org/2000/svg"
 width="204.000000pt" height="69.000000pt" viewBox="0 0 204.000000 69.000000"
 preserveAspectRatio="xMidYMid meet">

<g transform="translate(0.000000,69.000000) scale(0.100000,-0.100000)"
fill="#000000" stroke="none">
<path d="M0 345 l0 -345 968 1 c532 1 954 5 937 9 l-30 7 29 8 29 8 -6 201
c-4 111 -7 240 -7 287 l0 86 -47 6 c-27 4 -153 7 -281 8 -296 1 -274 18 -270
-206 1 -88 2 -215 0 -281 l-2 -122 -32 3 c-18 2 -35 3 -38 4 -3 1 9 9 25 19
l30 19 -3 276 c-2 245 -4 277 -19 277 -12 0 -13 -3 -4 -14 8 -9 9 -84 4 -265
l-6 -252 -71 3 -71 3 -3 170 c-1 94 1 211 5 260 l8 90 50 6 50 6 -57 1 c-31 1
-60 -3 -63 -8 -5 -8 -11 -8 -20 0 -8 6 -51 10 -106 9 -52 -1 -88 -4 -81 -7 24
-8 10 -360 -15 -369 -7 -3 -93 -2 -189 2 -199 8 -207 11 -219 85 -4 24 -4 99
0 167 l7 124 72 -3 71 -3 0 -103 c0 -117 3 -122 76 -122 l46 0 8 109 7 110 36
4 c34 3 34 4 -9 5 -37 2 -50 -3 -69 -23 -19 -21 -23 -36 -25 -105 -2 -45 -5
-83 -6 -84 -2 -2 -14 0 -26 5 -22 8 -23 14 -23 108 0 86 -2 100 -17 105 -10 3
-103 5 -208 5 l-190 -1 3 -79 4 -79 -65 0 -65 0 0 48 c0 96 5 110 41 115 32 4
32 4 -5 5 -29 2 -41 -4 -62 -29 -25 -29 -27 -37 -24 -118 l3 -86 79 2 78 1 -3
-189 -4 -190 -105 3 -105 3 2 235 c2 129 5 273 7 320 l4 85 219 0 c196 0 514
-5 1358 -20 154 -3 308 -8 342 -11 l61 -5 4 -67 c3 -37 5 -178 7 -314 l2 -247
-28 -4 c-23 -3 -21 -4 10 -6 l37 -1 0 345 0 345 -1020 0 -1020 0 0 -345z m443
268 c3 -5 2 -123 -2 -263 l-6 -255 -75 0 -75 0 3 210 c1 116 5 234 8 263 l5
52 69 0 c38 0 71 -3 73 -7z m647 -82 l0 -79 -32 4 c-18 1 -45 3 -60 3 -28 1
-28 1 -28 76 l0 75 60 0 60 0 0 -79z m810 62 c3 -3 6 -124 8 -269 l3 -265
-258 6 c-142 4 -264 8 -270 11 -10 2 -13 53 -13 207 0 112 3 231 6 263 l6 60
257 -4 c141 -2 258 -6 261 -9z m-830 -371 c0 -125 4 -182 12 -190 9 -9 -12
-12 -98 -12 -108 0 -109 0 -81 18 l27 17 6 160 c3 88 8 163 12 167 4 4 30 9
57 11 28 2 53 4 58 5 4 1 7 -78 7 -176z m-435 -32 l114 0 -6 -31 c-3 -18 -6
-56 -7 -85 l-1 -54 -125 1 c-69 0 -143 3 -164 7 l-40 7 27 12 c25 12 27 16 27
81 0 38 3 71 6 75 3 3 17 2 31 -4 13 -5 76 -9 138 -9z m283 -47 l-3 -58 -60 0
-60 0 -3 58 -3 57 66 0 66 0 -3 -57z"/>
<path d="M1426 568 c-30 -42 -13 -113 29 -124 38 -9 55 11 55 67 0 73 -50 107
-84 57z m54 -53 c0 -24 -5 -35 -15 -35 -10 0 -15 11 -15 35 0 24 5 35 15 35
10 0 15 -11 15 -35z"/>
<path d="M1522 513 c2 -55 6 -68 21 -71 12 -3 17 3 18 20 l0 23 16 -22 c8 -13
24 -23 34 -23 17 0 19 8 19 70 0 63 -2 70 -20 70 -15 0 -20 -7 -20 -27 l-1
-28 -15 28 c-8 15 -23 27 -35 27 -18 0 -20 -6 -17 -67z"/>
<path d="M1640 510 l0 -70 45 0 c49 0 61 16 20 26 -31 8 -32 29 -2 39 l22 8
-22 4 c-28 5 -30 33 -3 33 11 0 20 7 20 15 0 11 -11 15 -40 15 l-40 0 0 -70z"/>
<path d="M1420 340 c0 -56 3 -70 15 -70 10 0 15 10 15 30 0 23 4 30 20 30 11
0 20 5 20 11 0 6 -9 13 -20 16 -28 7 -25 23 5 23 16 0 25 6 25 15 0 11 -11 15
-40 15 l-40 0 0 -70z"/>
<path d="M1527 392 c-22 -24 -22 -95 -1 -116 21 -22 61 -20 74 3 17 33 12 89
-10 111 -25 25 -42 25 -63 2z m48 -62 c0 -18 -5 -35 -12 -37 -14 -5 -28 40
-19 63 10 27 31 9 31 -26z"/>
<path d="M1630 344 c0 -60 2 -65 26 -76 42 -20 59 -1 62 71 2 49 0 61 -12 61
-11 0 -16 -13 -18 -47 -4 -66 -28 -70 -28 -5 0 35 -4 52 -15 56 -12 4 -15 -6
-15 -60z"/>
<path d="M1745 397 c-11 -26 -1 -130 13 -135 7 -2 12 6 12 22 0 14 5 26 10 26
6 0 10 -6 10 -14 0 -15 28 -42 36 -34 2 3 -1 17 -7 32 -10 20 -10 29 -1 38 16
16 15 43 -1 56 -23 20 -66 25 -72 9z m55 -31 c0 -8 -7 -16 -15 -20 -10 -4 -15
1 -15 14 0 11 7 20 15 20 8 0 15 -6 15 -14z"/>
<path d="M1430 220 c-42 -42 -15 -130 39 -130 33 0 41 14 41 75 0 68 -40 95
-80 55z m50 -60 c0 -29 -4 -40 -15 -40 -11 0 -15 11 -15 40 0 29 4 40 15 40
11 0 15 -11 15 -40z"/>
<path d="M1520 160 c0 -63 2 -70 20 -70 16 0 20 7 21 33 l0 32 16 -32 c10 -19
24 -33 35 -33 16 0 18 9 18 70 0 54 -3 70 -14 70 -9 0 -16 -12 -18 -32 l-4
-33 -19 32 c-11 18 -28 33 -37 33 -16 0 -18 -10 -18 -70z"/>
<path d="M1640 161 l0 -68 31 -7 c47 -9 59 -7 59 8 0 8 -10 16 -22 18 -30 4
-37 38 -9 38 12 0 21 5 21 10 0 6 -9 10 -20 10 -27 0 -26 28 2 32 12 2 23 9
26 16 2 8 -10 12 -42 12 l-46 0 0 -69z"/>
</g>
</svg>
